<?xml version="1.0" standalone="no"?>
<!DOCTYPE svg PUBLIC "-//W3C//DTD SVG 20010904//EN"
 "http://www.w3.org/TR/2001/REC-SVG-20010904/DTD/svg10.dtd">
<svg version="1.0" xmlns="http://www.w3.org/2000/svg"
 width="776.000000pt" height="776.000000pt" viewBox="0 0 776.000000 776.000000"
 preserveAspectRatio="xMidYMid meet">
<metadata>
Created by potrace 1.14, written by Peter Selinger 2001-2017
</metadata>
<g transform="translate(0.000000,776.000000) scale(0.100000,-0.100000)"
fill="#000000" stroke="none">
<path d="M1805 7722 c-27 -20 -172 -127 -321 -238 l-270 -201 -67 -339 c-36
-186 -107 -562 -156 -834 -152 -831 -232 -1213 -272 -1292 l-29 -57 0 -443 c0
-609 16 -878 76 -1293 21 -148 30 -187 51 -220 60 -94 309 -310 518 -451 78
-52 116 -84 132 -112 34 -60 138 -198 228 -302 173 -199 367 -386 622 -601
l158 -133 175 -64 c910 -330 1184 -424 1254 -429 67 -6 74 -9 122 -52 28 -25
88 -68 133 -95 197 -116 808 -347 880 -333 22 5 34 0 56 -23 89 -93 662 -238
785 -200 19 6 123 18 230 26 321 24 481 58 650 141 78 38 110 61 176 127 90
90 127 150 128 213 2 65 -30 90 -229 178 -234 103 -356 184 -368 243 -4 19
-38 53 -114 114 -59 47 -169 144 -243 214 -74 69 -150 138 -168 152 -18 14
-44 46 -57 71 -29 57 -169 214 -436 488 l-206 212 -19 92 -19 92 -111 143
c-254 324 -510 748 -625 1032 l-33 83 17 65 c41 156 131 305 270 445 79 80
101 109 140 189 44 88 103 277 91 289 -2 3 -58 20 -123 37 -366 100 -701 276
-1031 543 -129 104 -414 384 -550 541 -313 359 -576 759 -751 1140 -121 264
-178 444 -199 630 -8 71 -15 97 -28 105 -43 25 -214 100 -276 121 -98 34 -131
31 -191 -14z"/>
</g>
</svg>
